<?xml version="1.0" encoding="UTF-8" standalone="no"?>
<svg
   xmlns:dc="http://purl.org/dc/elements/1.1/"
   xmlns:cc="http://creativecommons.org/ns#"
   xmlns:rdf="http://www.w3.org/1999/02/22-rdf-syntax-ns#"
   xmlns:svg="http://www.w3.org/2000/svg"
   xmlns="http://www.w3.org/2000/svg"
   viewBox="0 0 230 40"
   height="40"
   width="230"
   xml:space="preserve"
   id="svg2"
   version="1.1"><metadata
     id="metadata8"><rdf:RDF><cc:Work
         rdf:about=""><dc:format>image/svg+xml</dc:format><dc:type
           rdf:resource="http://purl.org/dc/dcmitype/StillImage" /><dc:title></dc:title></cc:Work></rdf:RDF></metadata><defs
     id="defs6" /><g
     transform="matrix(1.3333333,0,0,-1.3333333,0,40)"
     id="g10"><g
       transform="scale(0.1)"
       id="g12"><path
         id="path14"
         style="fill:#ffffff;fill-opacity:1;fill-rule:nonzero;stroke:none;stroke-width:1.26296973"
         d="M 85.39355,209.73895 H 7.5000002 V 287.6325 H 85.39355 v -77.89355" /><path
         id="path16"
         style="fill:#ffffff;fill-opacity:1;fill-rule:nonzero;stroke:none;stroke-width:1.26296973"
         d="m 188.94712,209.73895 h -77.89353 v 77.89355 h 77.89353 v -77.89355" /><path
         id="path18"
         style="fill:#c3c8c8;fill-opacity:1;fill-rule:nonzero;stroke:none;stroke-width:1.26296973"
         d="m 292.50274,209.73895 h -77.89556 v 77.89355 c 43.02101,0 77.89556,-34.87255 77.89556,-77.89355 v 0" /><path
         id="path20"
         style="fill:#ffffff;fill-opacity:1;fill-rule:nonzero;stroke:none;stroke-width:1.26296973"
         d="M 85.39355,108.61849 H 7.5000002 V 186.514 H 85.39355 v -77.89551" /><path
         id="path22"
         style="fill:#ffffff;fill-opacity:1;fill-rule:nonzero;stroke:none;stroke-width:1.26296973"
         d="M 292.50274,108.61849 H 214.60718 V 186.514 h 77.89556 v -77.89551" /><path
         id="path24"
         style="fill:#ffffff;fill-opacity:1;fill-rule:nonzero;stroke:none;stroke-width:1.26296973"
         d="M 85.39355,7.5000002 H 7.5000002 V 85.39354 H 85.39355 V 7.5000002" /><path
         id="path26"
         style="fill:#ffffff;fill-opacity:1;fill-rule:nonzero;stroke:none;stroke-width:1.26296973"
         d="M 188.94712,7.5000002 H 111.05359 V 85.39354 h 77.89353 V 7.5000002" /><path
         id="path28"
         style="fill:#c3c8c8;fill-opacity:1;fill-rule:nonzero;stroke:none;stroke-width:1.26296973"
         d="m 214.60718,7.5000002 v 0 77.8935398 h 77.89556 v 0 c 0,-43.019 -34.87455,-77.8935398 -77.89556,-77.8935398" /><path
         id="path30"
         style="fill:#c3c8c8;fill-opacity:1;fill-rule:nonzero;stroke:none;stroke-width:1.26296973"
         d="m 439.98068,110.38004 c 21.09695,0 36.03287,15.67668 36.03287,37.71518 0,22.0224 -14.93592,37.89783 -36.03287,37.89783 h -41.43711 v -75.61301 z m -74.11944,103.05571 h 74.11944 c 40.33094,0 69.07856,-26.88058 69.07856,-65.34053 0,-38.45794 -28.93633,-65.34057 -69.07856,-65.34057 h -74.11944 v 130.6811" /><path
         id="path32"
         style="fill:#c3c8c8;fill-opacity:1;fill-rule:nonzero;stroke:none;stroke-width:1.26296973"
         d="m 538.99125,213.43575 h 32.68233 V 82.75465 h -32.68233 v 130.6811" /><path
         id="path34"
         style="fill:#c3c8c8;fill-opacity:1;fill-rule:nonzero;stroke:none;stroke-width:1.26296973"
         d="m 723.21677,142.86564 v 5.22958 c 0,24.82892 -16.4355,41.06769 -41.6278,41.06769 -25.39706,0 -41.81652,-16.23877 -41.81652,-41.06769 v -5.22958 z m -116.12663,5.22958 c 0,41.44711 29.12701,68.32772 74.49883,68.32772 45.16707,0 74.29407,-26.88061 74.29407,-68.32772 V 82.75465 h -32.66627 v 29.67908 H 639.77245 V 82.75465 h -32.68231 v 65.34057" /><path
         id="path36"
         style="fill:#c3c8c8;fill-opacity:1;fill-rule:nonzero;stroke:none;stroke-width:1.26296973"
         d="m 783.95009,148.09522 c 0,40.32289 30.4379,68.32772 79.1623,68.32772 43.4908,0 71.4956,-20.35619 74.1034,-49.10176 h -33.4091 c -3.1759,12.6975 -16.9896,21.84173 -40.6943,21.84173 -29.8698,0 -46.1166,-16.98958 -46.1166,-41.06769 0,-24.07612 16.2468,-41.06571 46.1166,-41.06571 23.1527,0 36.5849,8.3914 40.5036,21.08292 h -42.0052 v 25.58575 h 75.605 v -17.36901 c 0,-33.21831 -27.8141,-56.5617 -74.1034,-56.5617 -48.9131,0 -79.1623,28.19352 -79.1623,68.32775" /><path
         id="path38"
         style="fill:#ffffff;fill-opacity:1;fill-rule:nonzero;stroke:none;stroke-width:1.26296973"
         d="m 1055.095,156.86804 c 9.3409,0 15.6787,5.41227 15.6787,13.06891 0,7.65665 -6.3378,13.2516 -15.6787,13.2516 h -56.00771 v -26.32051 z m 48.7243,-48.16427 V 82.75465 h -32.6682 v 25.94912 c 0,14.00444 -5.2296,17.73237 -17.9191,17.73237 H 999.08729 V 82.75465 h -32.6662 v 130.6811 h 88.67391 c 28.5589,0 48.7243,-18.10975 48.7243,-43.4988 0,-11.38659 -4.1093,-21.27963 -11.0152,-28.74759 7.2873,-7.46795 11.0152,-18.10377 11.0152,-32.48559" /><path
         id="path40"
         style="fill:#ffffff;fill-opacity:1;fill-rule:nonzero;stroke:none;stroke-width:1.26296973"
         d="m 1250.0687,142.86564 v 5.22958 c 0,24.82892 -16.4214,41.06769 -41.6278,41.06769 -25.381,0 -41.8185,-16.23877 -41.8185,-41.06769 v -5.22958 z m -116.1106,5.22958 c 0,41.44711 29.125,68.32772 74.4828,68.32772 45.1831,0 74.2941,-26.88061 74.2941,-68.32772 V 82.75465 h -32.6663 v 29.67908 h -83.4463 V 82.75465 h -32.6643 v 65.34057" /><path
         id="path42"
         style="fill:#ffffff;fill-opacity:1;fill-rule:nonzero;stroke:none;stroke-width:1.26296973"
         d="m 1476.697,216.42294 c -20.2779,0 -36.4525,-6.88176 -47.4677,-19.16974 -11.0152,12.28798 -27.1898,19.16974 -47.4696,19.16974 -39.3815,0 -63.6563,-25.57773 -63.6563,-67.39424 V 82.75465 h 32.6662 v 66.27405 c 0,24.82893 11.7581,39.95155 30.9901,39.95155 19.2339,0 30.9939,-15.12262 30.9939,-39.95155 V 82.75465 h 0.2871 32.6663 v 29.67908 36.59497 c 0,24.82893 11.758,39.95155 30.99,39.95155 19.2339,0 30.994,-15.12262 30.994,-39.95155 V 82.75465 h 32.6622 v 29.67908 36.59497 c 0,41.81651 -24.2748,67.39424 -63.6582,67.39424" /><path
         id="path44"
         style="fill:#ffffff;fill-opacity:1;fill-rule:nonzero;stroke:none;stroke-width:1.26296973"
         d="m 1574.4811,111.69095 h 86.2566 c 11.5697,0 18.8548,4.66346 18.8548,11.76002 0,7.09457 -7.2851,11.39264 -18.8548,11.39264 h -46.6685 c -30.4379,0 -49.67,15.30729 -49.67,39.76281 0,23.89546 19.2321,38.82933 49.67,38.82933 h 88.1078 v -28.93629 h -86.2408 c -11.7599,0 -18.8545,-4.29809 -18.8545,-11.01522 0,-6.90586 7.0946,-11.01524 18.8545,-11.01524 h 46.6688 c 30.4198,0 49.6538,-15.30527 49.6538,-39.38341 0,-24.84299 -19.234,-40.33094 -49.6538,-40.33094 h -88.1239 v 28.9363" /></g></g></svg>