<?xml version="1.0" encoding="UTF-8" standalone="no"?>
<!-- Created with Inkscape (http://www.inkscape.org/) -->

<svg
   xmlns:dc="http://purl.org/dc/elements/1.1/"
   xmlns:cc="http://creativecommons.org/ns#"
   xmlns:rdf="http://www.w3.org/1999/02/22-rdf-syntax-ns#"
   xmlns:svg="http://www.w3.org/2000/svg"
   xmlns="http://www.w3.org/2000/svg"
   xmlns:sodipodi="http://sodipodi.sourceforge.net/DTD/sodipodi-0.dtd"
   xmlns:inkscape="http://www.inkscape.org/namespaces/inkscape"
   version="1.1"
   id="svg2"
   xml:space="preserve"
   width="1477.3333"
   height="488"
   viewBox="0 0 1477.3333 488"
   sodipodi:docname="diagrams.svg"
   inkscape:version="0.92.3 (2405546, 2018-03-11)"
   inkscape:export-filename="./diagrams.png"
   inkscape:export-xdpi="24.299999"
   inkscape:export-ydpi="24.299999"><metadata
     id="metadata8"><rdf:RDF><cc:Work
         rdf:about=""><dc:format>image/svg+xml</dc:format><dc:type
           rdf:resource="http://purl.org/dc/dcmitype/StillImage" /><dc:title /></cc:Work></rdf:RDF></metadata><defs
     id="defs6" /><sodipodi:namedview
     pagecolor="#ffffff"
     bordercolor="#666666"
     borderopacity="1"
     objecttolerance="10"
     gridtolerance="10"
     guidetolerance="10"
     inkscape:pageopacity="0"
     inkscape:pageshadow="2"
     inkscape:window-width="1237"
     inkscape:window-height="556"
     id="namedview4"
     showgrid="false"
     inkscape:zoom="0.24435922"
     inkscape:cx="59.338871"
     inkscape:cy="244"
     inkscape:window-x="607"
     inkscape:window-y="315"
     inkscape:window-maximized="0"
     inkscape:current-layer="g10" /><g
     id="g10"
     inkscape:groupmode="layer"
     inkscape:label="ink_ext_XXXXXX"
     transform="matrix(1.3333333,0,0,-1.3333333,0,488)"><g
       id="g12"
       transform="scale(0.1)"><path
         d="M 1497.81,2165.62 H 1109.8 v 388.01 h 388.01 v -388.01"
         style="fill:#005eb8;fill-opacity:1;fill-rule:nonzero;stroke:none"
         id="path14"
         inkscape:connector-curvature="0" /><path
         d="m 2013.64,2165.62 h -388.01 v 388.01 h 388.01 v -388.01"
         style="fill:#005eb8;fill-opacity:1;fill-rule:nonzero;stroke:none"
         id="path16"
         inkscape:connector-curvature="0" /><path
         d="m 2529.48,2165.62 h -388.02 v 388.01 c 214.3,0 388.02,-173.71 388.02,-388.01 v 0"
         style="fill:#000000;fill-opacity:1;fill-rule:nonzero;stroke:none"
         id="path18"
         inkscape:connector-curvature="0" /><path
         d="M 1497.81,1661.91 H 1109.8 v 388.02 h 388.01 v -388.02"
         style="fill:#005eb8;fill-opacity:1;fill-rule:nonzero;stroke:none"
         id="path20"
         inkscape:connector-curvature="0" /><path
         d="m 2529.48,1661.91 h -388.02 v 388.02 h 388.02 v -388.02"
         style="fill:#005eb8;fill-opacity:1;fill-rule:nonzero;stroke:none"
         id="path22"
         inkscape:connector-curvature="0" /><path
         d="M 1497.81,1158.21 H 1109.8 v 388.01 h 388.01 v -388.01"
         style="fill:#005eb8;fill-opacity:1;fill-rule:nonzero;stroke:none"
         id="path24"
         inkscape:connector-curvature="0" /><path
         d="m 2013.64,1158.21 h -388.01 v 388.01 h 388.01 v -388.01"
         style="fill:#005eb8;fill-opacity:1;fill-rule:nonzero;stroke:none"
         id="path26"
         inkscape:connector-curvature="0" /><path
         d="m 2141.46,1158.21 v 0 388.01 h 388.02 v 0 c 0,-214.29 -173.72,-388.01 -388.02,-388.01"
         style="fill:#000000;fill-opacity:1;fill-rule:nonzero;stroke:none"
         id="path28"
         inkscape:connector-curvature="0" /><path
         d="m 3632.42,1959.84 c 105.09,0 179.49,78.09 179.49,187.87 0,109.7 -74.4,188.78 -179.49,188.78 h -206.41 v -376.65 z m -369.21,513.35 h 369.21 c 200.9,0 344.1,-133.9 344.1,-325.48 0,-191.57 -144.14,-325.48 -344.1,-325.48 h -369.21 v 650.96"
         style="fill:#000000;fill-opacity:1;fill-rule:nonzero;stroke:none"
         id="path30"
         inkscape:connector-curvature="0" /><path
         d="m 4125.62,2473.19 h 162.8 v -650.96 h -162.8 v 650.96"
         style="fill:#000000;fill-opacity:1;fill-rule:nonzero;stroke:none"
         id="path32"
         inkscape:connector-curvature="0" /><path
         d="m 5043.3,2121.66 v 26.05 c 0,123.68 -81.87,204.57 -207.36,204.57 -126.51,0 -208.3,-80.89 -208.3,-204.57 v -26.05 z m -578.46,26.05 c 0,206.46 145.09,340.36 371.1,340.36 224.99,0 370.08,-133.9 370.08,-340.36 V 1822.23 H 5043.3 v 147.84 h -415.66 v -147.84 h -162.8 v 325.48"
         style="fill:#000000;fill-opacity:1;fill-rule:nonzero;stroke:none"
         id="path34"
         inkscape:connector-curvature="0" /><path
         d="m 5345.83,2147.71 c 0,200.86 151.62,340.36 394.33,340.36 216.64,0 356.14,-101.4 369.13,-244.59 h -166.42 c -15.82,63.25 -84.63,108.8 -202.71,108.8 -148.79,0 -229.72,-84.63 -229.72,-204.57 0,-119.93 80.93,-204.56 229.72,-204.56 115.33,0 182.24,41.8 201.76,105.02 h -209.24 v 127.45 h 376.61 v -86.52 c 0,-165.47 -138.55,-281.75 -369.13,-281.75 -243.65,0 -394.33,140.44 -394.33,340.36"
         style="fill:#000000;fill-opacity:1;fill-rule:nonzero;stroke:none"
         id="path36"
         inkscape:connector-curvature="0" /><path
         d="m 6696.48,2191.41 c 46.53,0 78.1,26.96 78.1,65.1 0,38.14 -31.57,66.01 -78.1,66.01 h -278.99 v -131.11 z m 242.71,-239.92 v -129.26 h -162.73 v 129.26 c 0,69.76 -26.05,88.33 -89.26,88.33 h -269.71 v -217.59 h -162.72 v 650.96 h 441.71 c 142.26,0 242.71,-90.21 242.71,-216.68 0,-56.72 -20.47,-106 -54.87,-143.2 36.3,-37.2 54.87,-90.18 54.87,-161.82"
         style="fill:#005eb8;fill-opacity:1;fill-rule:nonzero;stroke:none"
         id="path38"
         inkscape:connector-curvature="0" /><path
         d="m 7667.7,2121.66 v 26.05 c 0,123.68 -81.8,204.57 -207.36,204.57 -126.43,0 -208.31,-80.89 -208.31,-204.57 v -26.05 z m -578.38,26.05 c 0,206.46 145.08,340.36 371.02,340.36 225.07,0 370.08,-133.9 370.08,-340.36 V 1822.23 H 7667.7 v 147.84 h -415.67 v -147.84 h -162.71 v 325.48"
         style="fill:#005eb8;fill-opacity:1;fill-rule:nonzero;stroke:none"
         id="path40"
         inkscape:connector-curvature="0" /><path
         d="m 8796.6,2488.07 c -101.01,0 -181.58,-34.28 -236.45,-95.49 -54.87,61.21 -135.44,95.49 -236.46,95.49 -196.17,0 -317.09,-127.41 -317.09,-335.71 v -330.13 h 162.72 v 330.13 c 0,123.68 58.57,199.01 154.37,199.01 95.81,0 154.39,-75.33 154.39,-199.01 v -330.13 h 1.43 162.72 v 147.84 182.29 c 0,123.68 58.57,199.01 154.37,199.01 95.81,0 154.39,-75.33 154.39,-199.01 v -330.13 h 162.7 l 0.01,147.84 v 182.29 c 0,208.3 -120.92,335.71 -317.1,335.71"
         style="fill:#005eb8;fill-opacity:1;fill-rule:nonzero;stroke:none"
         id="path42"
         inkscape:connector-curvature="0" /><path
         d="m 9283.69,1966.37 h 429.67 c 57.63,0 93.92,23.23 93.92,58.58 0,35.34 -36.29,56.75 -93.92,56.75 h -232.47 c -151.62,0 -247.42,76.25 -247.42,198.07 0,119.03 95.8,193.42 247.42,193.42 h 438.89 v -144.14 h -429.59 c -58.58,0 -93.92,-21.41 -93.92,-54.87 0,-34.4 35.34,-54.87 93.92,-54.87 h 232.47 c 151.53,0 247.34,-76.24 247.34,-196.18 0,-123.75 -95.81,-200.9 -247.34,-200.9 h -438.97 v 144.14"
         style="fill:#005eb8;fill-opacity:1;fill-rule:nonzero;stroke:none"
         id="path44"
         inkscape:connector-curvature="0" /><path
         d="m 6490.27,1499.91 h -95.59 v -274.53 h -36.4 v 274.53 h -95.59 v 32.44 h 227.58 v -32.44"
         style="fill:#005eb8;fill-opacity:1;fill-rule:nonzero;stroke:none"
         id="path46"
         inkscape:connector-curvature="0" /><path
         d="m 6601.22,1532.35 h 167.09 v -32.44 h -130.68 v -100.45 h 119.7 v -32.44 h -119.7 v -109.2 h 132.87 v -32.44 h -169.28 v 306.97"
         style="fill:#005eb8;fill-opacity:1;fill-rule:nonzero;stroke:none"
         id="path48"
         inkscape:connector-curvature="0" /><path
         d="m 7098.53,1238.08 c -8.78,-6.71 -19.89,-11.4 -33.34,-14.01 -13.45,-2.64 -27.78,-3.97 -42.97,-3.97 -18.42,0 -35.67,3.16 -51.75,9.44 -16.09,6.29 -30.12,15.87 -42.09,28.73 -12,12.86 -21.5,29.31 -28.52,49.34 -7.02,20.01 -10.51,43.78 -10.51,71.24 0,28.66 3.86,52.99 11.62,73.02 7.74,20.03 17.98,36.41 30.69,49.12 12.72,12.73 26.97,21.98 42.75,27.84 15.79,5.86 31.86,8.77 48.25,8.77 17.54,0 31.86,-0.95 42.97,-2.84 11.11,-1.92 20.61,-4.46 28.5,-7.68 l -8.77,-32.45 c -14.03,7.01 -34.06,10.53 -60.07,10.53 -12,0 -23.83,-2.19 -35.52,-6.59 -11.7,-4.39 -22.14,-11.55 -31.36,-21.49 -9.2,-9.94 -16.59,-22.93 -22.15,-39.02 -5.56,-16.09 -8.32,-35.82 -8.32,-59.21 0,-21.04 2.62,-39.45 7.88,-55.24 5.27,-15.8 12.51,-28.96 21.71,-39.48 9.22,-10.52 20.03,-18.4 32.45,-23.68 12.43,-5.24 25.95,-7.88 40.57,-7.88 13.16,0 24.63,1.31 34.43,3.94 9.79,2.64 18.04,5.99 24.77,10.1 l 8.78,-28.53"
         style="fill:#005eb8;fill-opacity:1;fill-rule:nonzero;stroke:none"
         id="path50"
         inkscape:connector-curvature="0" /><path
         d="m 7401.98,1366.14 h -147.34 v -140.76 h -36.4 v 306.97 h 36.4 v -133.76 h 147.34 v 133.76 h 36.4 v -306.97 h -36.4 v 140.76"
         style="fill:#005eb8;fill-opacity:1;fill-rule:nonzero;stroke:none"
         id="path52"
         inkscape:connector-curvature="0" /><path
         d="m 7633.96,1426.23 -23.68,44.27 h -1.75 l 4.38,-44.27 v -200.85 h -34.2 v 311.79 h 19.3 l 146.9,-204.8 22.8,-42.09 h 2.2 l -4.83,42.09 v 199.98 h 34.21 v -311.8 h -19.3 l -146.03,205.68"
         style="fill:#005eb8;fill-opacity:1;fill-rule:nonzero;stroke:none"
         id="path54"
         inkscape:connector-curvature="0" /><path
         d="m 7965.49,1378.85 c 0,-16.94 1.68,-33.03 5.03,-48.23 3.36,-15.19 8.55,-28.57 15.57,-40.13 7.02,-11.54 16.01,-20.75 26.97,-27.62 10.97,-6.88 23.9,-10.3 38.82,-10.3 27.18,0 48.52,10.3 64.02,30.91 15.49,20.62 23.24,52.4 23.24,95.37 0,16.67 -1.68,32.69 -5.04,48.03 -3.37,15.35 -8.63,28.8 -15.79,40.33 -7.17,11.56 -16.22,20.78 -27.19,27.65 -10.96,6.85 -24.05,10.3 -39.24,10.3 -26.9,0 -48.02,-10.3 -63.38,-30.92 -15.35,-20.61 -23.01,-52.4 -23.01,-95.39 z m -38.6,0 c 0,51.16 10.82,90.41 32.46,117.77 21.63,27.33 52.47,40.98 92.53,40.98 21.63,0 40.34,-3.79 56.12,-11.4 15.8,-7.6 28.88,-18.34 39.25,-32.22 10.38,-13.9 18.05,-30.55 23.02,-50 4.97,-19.44 7.46,-41.16 7.46,-65.13 0,-51.14 -10.89,-90.41 -32.67,-117.74 -21.79,-27.33 -52.84,-41.01 -93.18,-41.01 -21.35,0 -39.85,3.81 -55.48,11.4 -15.65,7.62 -28.67,18.36 -39.04,32.25 -10.37,13.87 -18.04,30.54 -23.01,49.99 -4.98,19.44 -7.46,41.14 -7.46,65.11"
         style="fill:#005eb8;fill-opacity:1;fill-rule:nonzero;stroke:none"
         id="path56"
         inkscape:connector-curvature="0" /><path
         d="m 8486.89,1225.38 h -181.55 v 306.97 h 36.4 v -274.53 h 145.15 v -32.44"
         style="fill:#005eb8;fill-opacity:1;fill-rule:nonzero;stroke:none"
         id="path58"
         inkscape:connector-curvature="0" /><path
         d="m 8594.78,1378.85 c 0,-16.94 1.68,-33.03 5.03,-48.23 3.36,-15.19 8.55,-28.57 15.57,-40.13 7.02,-11.54 16.01,-20.75 26.97,-27.62 10.97,-6.88 23.9,-10.3 38.82,-10.3 27.18,0 48.52,10.3 64.02,30.91 15.48,20.62 23.24,52.4 23.24,95.37 0,16.67 -1.68,32.69 -5.04,48.03 -3.36,15.35 -8.62,28.8 -15.79,40.33 -7.16,11.56 -16.22,20.78 -27.18,27.65 -10.98,6.85 -24.05,10.3 -39.25,10.3 -26.9,0 -48.03,-10.3 -63.38,-30.92 -15.34,-20.61 -23.01,-52.4 -23.01,-95.39 z m -38.6,0 c 0,51.16 10.82,90.41 32.46,117.77 21.62,27.33 52.47,40.98 92.53,40.98 21.63,0 40.34,-3.79 56.12,-11.4 15.8,-7.6 28.87,-18.34 39.25,-32.22 10.37,-13.9 18.06,-30.55 23.03,-50 4.96,-19.44 7.45,-41.16 7.45,-65.13 0,-51.14 -10.89,-90.41 -32.66,-117.74 -21.79,-27.33 -52.85,-41.01 -93.19,-41.01 -21.35,0 -39.84,3.81 -55.48,11.4 -15.65,7.62 -28.66,18.36 -39.04,32.25 -10.37,13.87 -18.05,30.54 -23.01,49.99 -4.98,19.44 -7.46,41.14 -7.46,65.11"
         style="fill:#005eb8;fill-opacity:1;fill-rule:nonzero;stroke:none"
         id="path60"
         inkscape:connector-curvature="0" /><path
         d="m 9038.13,1378.42 h 103.05 v -135.07 c -4.68,-3.51 -10.31,-6.73 -16.88,-9.64 -6.59,-2.93 -13.6,-5.41 -21.05,-7.46 -7.46,-2.05 -15.2,-3.58 -23.24,-4.59 -8.05,-1.04 -15.87,-1.56 -23.47,-1.56 -19.59,0 -37.57,3.16 -53.93,9.44 -16.38,6.29 -30.55,15.93 -42.54,28.95 -11.99,13 -21.35,29.52 -28.07,49.55 -6.73,20.03 -10.09,43.64 -10.09,70.81 0,28.37 4.1,52.63 12.29,72.8 8.17,20.18 18.86,36.63 32.01,49.34 13.16,12.73 27.91,21.98 44.29,27.84 16.38,5.86 32.74,8.77 49.11,8.77 17.55,0 32.01,-0.95 43.42,-2.84 11.39,-1.92 21.05,-4.46 28.94,-7.68 l -9.21,-32.45 c -14.04,7.01 -34.07,10.53 -60.07,10.53 -12.28,0 -24.5,-2.12 -36.63,-6.36 -12.13,-4.23 -23.01,-11.33 -32.67,-21.27 -9.64,-9.93 -17.54,-22.95 -23.67,-39.02 -6.15,-16.09 -9.21,-35.98 -9.21,-59.66 0,-21.63 2.47,-40.33 7.44,-56.12 4.94,-15.8 11.86,-28.89 20.76,-39.25 8.89,-10.39 19.6,-18.14 32.14,-23.25 12.52,-5.12 26.22,-7.66 41.09,-7.66 18.66,0 34.54,3.65 47.66,10.95 v 85.52 l -71.47,8.77 v 20.61"
         style="fill:#005eb8;fill-opacity:1;fill-rule:nonzero;stroke:none"
         id="path62"
         inkscape:connector-curvature="0" /><path
         d="m 9277.13,1532.35 h 36.4 v -306.97 h -36.4 v 306.97"
         style="fill:#005eb8;fill-opacity:1;fill-rule:nonzero;stroke:none"
         id="path64"
         inkscape:connector-curvature="0" /><path
         d="m 9462.18,1532.35 h 167.09 v -32.44 h -130.7 v -100.45 h 119.72 v -32.44 h -119.72 v -109.2 h 132.88 v -32.44 h -169.27 v 306.97"
         style="fill:#005eb8;fill-opacity:1;fill-rule:nonzero;stroke:none"
         id="path66"
         inkscape:connector-curvature="0" /><path
         d="m 9901.57,1303.44 c 0,12.28 -3.66,22.28 -10.95,30.04 -7.32,7.75 -16.45,14.62 -27.42,20.61 -10.95,5.99 -22.88,11.62 -35.74,16.88 -12.86,5.27 -24.77,11.62 -35.73,19.08 -10.98,7.45 -20.11,16.65 -27.41,27.62 -7.31,10.97 -10.97,24.92 -10.97,41.89 0,23.97 8.33,42.96 25,56.99 16.67,14.04 40.35,21.05 71.04,21.05 17.83,0 34.06,-1.31 48.68,-3.94 14.62,-2.64 26.01,-6 34.21,-10.08 l -10.97,-32.46 c -6.72,3.31 -16.59,6.49 -29.6,9.5 -13.02,3.02 -27.71,4.54 -44.07,4.54 -19.3,0 -33.76,-4.33 -43.42,-12.94 -9.64,-8.63 -14.46,-18.79 -14.46,-30.48 0,-11.4 3.65,-20.91 10.96,-28.5 7.3,-7.62 16.45,-14.4 27.41,-20.39 10.96,-5.99 22.87,-11.92 35.73,-17.76 12.87,-5.85 24.78,-12.66 35.74,-20.39 10.97,-7.75 20.1,-17.05 27.41,-27.84 7.3,-10.84 10.96,-24.29 10.96,-40.36 0,-13.15 -2.34,-25 -7.01,-35.52 -4.68,-10.53 -11.56,-19.58 -20.61,-27.2 -9.07,-7.59 -20.03,-13.45 -32.9,-17.53 -12.86,-4.1 -27.48,-6.15 -43.85,-6.15 -21.92,0 -40.06,1.69 -54.37,5.05 -14.34,3.36 -25.44,7.1 -33.33,11.2 l 12.28,32.44 c 6.71,-3.7 16.66,-7.32 29.82,-10.88 13.16,-3.56 27.92,-5.34 44.29,-5.34 9.64,0 18.71,0.95 27.18,2.84 8.49,1.91 15.8,4.98 21.94,9.21 6.14,4.24 11.03,9.58 14.69,16 3.65,6.44 5.47,14.03 5.47,22.82"
         style="fill:#005eb8;fill-opacity:1;fill-rule:nonzero;stroke:none"
         id="path68"
         inkscape:connector-curvature="0" /></g></g></svg>